<svg width="1440" height="1024" viewBox="0 0 1440 1024" fill="none" xmlns="http://www.w3.org/2000/svg">
<rect width="1440" height="1024" fill="black" fill-opacity="0.95"/>
<path d="M367 244H1171" stroke="black"/>
<g filter="url(#filter0_d_217_5517)">
<path d="M167 232H1027C1157.34 232 1263 337.661 1263 468V468C1263 598.339 1157.34 704 1027 704H167" stroke="url(#paint0_linear_217_5517)" stroke-width="20" stroke-linecap="round"/>
</g>
<rect x="251" y="162" width="284" height="140" rx="8" fill="#D2FF58"/>
<rect x="301" y="190" width="184" height="84" rx="8" fill="#D2FF58"/>
<path d="M324.961 222.832L307.073 205.488L308.161 205.936L308.257 222H304.481V197.904H304.641L322.273 215.248L321.409 214.992L321.345 198.704H325.057V222.832H324.961ZM331.481 198.704H345.625V202.288H335.225V208.848H344.281V212.432H335.225V222H331.481V198.704ZM348.786 198.704H364.37V202.288H358.354V222H354.642V202.288H348.786V198.704ZM379.356 198.704H383.1V218.416H394.588V222H379.356V198.704ZM404.473 222.352C403.193 222.352 402.03 222.085 400.985 221.552C399.961 221.019 399.15 220.229 398.553 219.184C397.955 218.117 397.657 216.805 397.657 215.248C397.657 213.712 397.966 212.4 398.585 211.312C399.225 210.203 400.057 209.349 401.081 208.752C402.126 208.155 403.257 207.856 404.473 207.856C405.774 207.856 406.819 208.112 407.609 208.624C408.419 209.136 409.049 209.744 409.497 210.448L409.305 210.96L409.657 208.464H412.953V222H409.369V218.704L409.721 219.568C409.635 219.696 409.465 219.909 409.209 220.208C408.953 220.485 408.601 220.795 408.153 221.136C407.705 221.477 407.171 221.765 406.553 222C405.955 222.235 405.262 222.352 404.473 222.352ZM405.465 219.408C406.105 219.408 406.681 219.291 407.193 219.056C407.726 218.821 408.174 218.491 408.537 218.064C408.921 217.637 409.198 217.125 409.369 216.528V213.584C409.198 213.029 408.921 212.549 408.537 212.144C408.153 211.717 407.683 211.387 407.129 211.152C406.595 210.917 405.998 210.8 405.337 210.8C404.611 210.8 403.939 210.981 403.321 211.344C402.702 211.707 402.201 212.208 401.817 212.848C401.454 213.488 401.273 214.224 401.273 215.056C401.273 215.867 401.465 216.603 401.849 217.264C402.233 217.925 402.745 218.448 403.385 218.832C404.025 219.216 404.718 219.408 405.465 219.408ZM422.254 222.576C421.016 222.576 419.992 222.203 419.182 221.456C418.371 220.688 417.944 219.707 417.902 218.512V208.464H421.486V217.232C421.528 217.893 421.72 218.437 422.062 218.864C422.403 219.291 422.947 219.504 423.694 219.504C424.398 219.504 425.027 219.291 425.582 218.864C426.136 218.416 426.563 217.808 426.862 217.04C427.182 216.272 427.342 215.408 427.342 214.448V208.464H430.926V222H427.694L427.406 219.024L427.502 219.504C427.224 220.08 426.83 220.613 426.318 221.104C425.806 221.573 425.198 221.936 424.494 222.192C423.811 222.448 423.064 222.576 422.254 222.576ZM439.102 208.464L439.422 211.376L439.294 210.992C439.764 210.053 440.457 209.307 441.374 208.752C442.313 208.176 443.422 207.888 444.702 207.888C445.982 207.888 447.038 208.261 447.87 209.008C448.702 209.755 449.129 210.736 449.15 211.952V222H445.566V213.232C445.545 212.549 445.353 212.005 444.99 211.6C444.628 211.173 444.052 210.949 443.262 210.928C442.537 210.928 441.886 211.152 441.31 211.6C440.734 212.027 440.276 212.624 439.934 213.392C439.614 214.139 439.454 215.003 439.454 215.984V222H435.87V208.464H439.102ZM465.289 220.752C464.692 221.243 463.956 221.637 463.081 221.936C462.228 222.213 461.364 222.352 460.489 222.352C458.996 222.352 457.684 222.064 456.553 221.488C455.422 220.891 454.537 220.069 453.897 219.024C453.278 217.957 452.969 216.688 452.969 215.216C452.969 213.744 453.3 212.475 453.961 211.408C454.644 210.341 455.529 209.531 456.617 208.976C457.726 208.4 458.9 208.112 460.137 208.112C461.268 208.112 462.27 208.272 463.145 208.592C464.02 208.891 464.777 209.307 465.417 209.84L463.625 212.176C463.284 211.899 462.836 211.643 462.281 211.408C461.748 211.152 461.14 211.024 460.457 211.024C459.732 211.024 459.07 211.205 458.473 211.568C457.897 211.931 457.428 212.432 457.065 213.072C456.724 213.691 456.553 214.405 456.553 215.216C456.553 215.984 456.734 216.688 457.097 217.328C457.46 217.968 457.961 218.48 458.601 218.864C459.241 219.227 459.977 219.408 460.809 219.408C461.342 219.408 461.833 219.333 462.281 219.184C462.75 219.013 463.156 218.789 463.497 218.512L465.289 220.752ZM468.964 222V197.04H472.484V211.44L472.42 210.896C472.889 210.021 473.583 209.307 474.5 208.752C475.417 208.176 476.516 207.888 477.796 207.888C479.076 207.888 480.132 208.261 480.964 209.008C481.796 209.755 482.223 210.736 482.244 211.952V222H478.66V213.232C478.639 212.549 478.447 212.005 478.084 211.6C477.721 211.173 477.145 210.949 476.356 210.928C475.631 210.928 474.98 211.152 474.404 211.6C473.828 212.048 473.369 212.656 473.028 213.424C472.708 214.171 472.548 215.024 472.548 215.984V222H468.964Z" fill="black"/>
<path d="M359.197 259.264H364.957V262H355.525L359.197 259.264ZM346.261 253.288C346.261 252.072 346.493 250.928 346.957 249.856C347.421 248.784 348.061 247.832 348.877 247C349.693 246.168 350.637 245.52 351.709 245.056C352.797 244.576 353.957 244.336 355.189 244.336C356.405 244.336 357.549 244.576 358.621 245.056C359.709 245.52 360.661 246.168 361.477 247C362.309 247.832 362.957 248.784 363.421 249.856C363.901 250.928 364.141 252.072 364.141 253.288C364.141 254.52 363.901 255.672 363.421 256.744C362.957 257.816 362.309 258.768 361.477 259.6C360.661 260.416 359.709 261.056 358.621 261.52C357.549 261.968 356.405 262.192 355.189 262.192C353.941 262.192 352.781 261.968 351.709 261.52C350.637 261.056 349.693 260.424 348.877 259.624C348.061 258.808 347.421 257.864 346.957 256.792C346.493 255.704 346.261 254.536 346.261 253.288ZM349.141 253.288C349.141 254.136 349.293 254.936 349.597 255.688C349.917 256.44 350.357 257.104 350.917 257.68C351.477 258.24 352.125 258.68 352.861 259C353.597 259.32 354.397 259.48 355.261 259.48C356.093 259.48 356.869 259.32 357.589 259C358.325 258.68 358.965 258.24 359.509 257.68C360.053 257.12 360.477 256.464 360.781 255.712C361.101 254.96 361.261 254.152 361.261 253.288C361.261 252.44 361.101 251.64 360.781 250.888C360.461 250.136 360.029 249.48 359.485 248.92C358.941 248.344 358.301 247.896 357.565 247.576C356.829 247.256 356.037 247.096 355.189 247.096C354.341 247.096 353.549 247.256 352.813 247.576C352.077 247.896 351.429 248.344 350.869 248.92C350.325 249.496 349.901 250.16 349.597 250.912C349.293 251.664 349.141 252.456 349.141 253.288ZM376.973 246.16L372.989 253L371.405 252.208C371.597 252.112 371.805 252.04 372.029 251.992C372.253 251.944 372.469 251.92 372.677 251.92C373.269 251.904 373.845 251.976 374.405 252.136C374.965 252.28 375.469 252.536 375.917 252.904C376.365 253.272 376.725 253.768 376.997 254.392C377.269 255.016 377.405 255.792 377.405 256.72C377.405 257.856 377.141 258.832 376.613 259.648C376.101 260.464 375.413 261.096 374.549 261.544C373.701 261.976 372.773 262.192 371.765 262.192C370.997 262.192 370.205 262.032 369.389 261.712C368.589 261.392 367.941 260.968 367.445 260.44L368.861 258.136C369.133 258.472 369.525 258.784 370.037 259.072C370.565 259.36 371.117 259.504 371.693 259.504C372.189 259.504 372.645 259.392 373.061 259.168C373.493 258.928 373.845 258.592 374.117 258.16C374.389 257.712 374.525 257.176 374.525 256.552C374.525 255.736 374.285 255.088 373.805 254.608C373.325 254.112 372.661 253.864 371.813 253.864C371.349 253.864 370.973 253.896 370.685 253.96C370.397 254.008 370.125 254.072 369.869 254.152L369.797 254.08L373.157 248.488L373.997 248.848H368.525V246.16H376.973ZM387.886 262C388.878 260.992 389.838 260.016 390.766 259.072C391.694 258.128 392.526 257.216 393.262 256.336C393.998 255.44 394.574 254.584 394.99 253.768C395.422 252.936 395.638 252.128 395.638 251.344C395.638 250.896 395.566 250.504 395.422 250.168C395.278 249.832 395.078 249.552 394.822 249.328C394.566 249.104 394.27 248.936 393.934 248.824C393.614 248.712 393.262 248.656 392.878 248.656C392.414 248.656 392.014 248.728 391.678 248.872C391.342 249.016 391.07 249.208 390.862 249.448C390.654 249.672 390.494 249.92 390.382 250.192C390.27 250.448 390.214 250.712 390.214 250.984C390.214 251.512 390.294 251.984 390.454 252.4C390.63 252.8 390.862 253.152 391.15 253.456L389.446 255.016C389.03 254.792 388.678 254.44 388.39 253.96C388.102 253.48 387.878 252.976 387.718 252.448C387.574 251.92 387.502 251.456 387.502 251.056C387.502 250.176 387.726 249.352 388.174 248.584C388.638 247.816 389.302 247.192 390.166 246.712C391.046 246.216 392.11 245.968 393.358 245.968C394.398 245.968 395.302 246.208 396.07 246.688C396.854 247.152 397.462 247.776 397.894 248.56C398.326 249.344 398.542 250.192 398.542 251.104C398.542 251.872 398.398 252.624 398.11 253.36C397.838 254.08 397.462 254.8 396.982 255.52C396.502 256.224 395.966 256.92 395.374 257.608C394.798 258.296 394.214 258.992 393.622 259.696L392.374 259.312H398.926V262H387.886ZM407.532 262.048C406.572 262.048 405.684 261.88 404.868 261.544C404.068 261.192 403.364 260.672 402.756 259.984C402.164 259.296 401.7 258.456 401.364 257.464C401.028 256.456 400.86 255.304 400.86 254.008C400.86 252.6 401.02 251.392 401.34 250.384C401.676 249.36 402.132 248.52 402.708 247.864C403.3 247.208 404.004 246.736 404.82 246.448C405.636 246.144 406.54 245.992 407.532 245.992C408.476 245.992 409.348 246.168 410.148 246.52C410.964 246.856 411.668 247.368 412.26 248.056C412.868 248.728 413.34 249.568 413.676 250.576C414.012 251.568 414.18 252.712 414.18 254.008C414.18 255.336 414.012 256.504 413.676 257.512C413.34 258.52 412.868 259.36 412.26 260.032C411.652 260.704 410.948 261.208 410.148 261.544C409.348 261.88 408.476 262.048 407.532 262.048ZM407.508 259.384C408.388 259.384 409.1 259.152 409.644 258.688C410.204 258.224 410.612 257.584 410.868 256.768C411.14 255.936 411.276 254.992 411.276 253.936C411.276 252.912 411.14 252.008 410.868 251.224C410.612 250.424 410.204 249.8 409.644 249.352C409.1 248.888 408.388 248.664 407.508 248.68C406.644 248.664 405.932 248.888 405.372 249.352C404.828 249.816 404.42 250.448 404.148 251.248C403.892 252.048 403.764 252.968 403.764 254.008C403.764 255.032 403.892 255.952 404.148 256.768C404.42 257.584 404.828 258.224 405.372 258.688C405.932 259.152 406.644 259.384 407.508 259.384ZM416.316 262C417.308 260.992 418.268 260.016 419.196 259.072C420.124 258.128 420.956 257.216 421.692 256.336C422.428 255.44 423.004 254.584 423.42 253.768C423.852 252.936 424.068 252.128 424.068 251.344C424.068 250.896 423.996 250.504 423.852 250.168C423.708 249.832 423.508 249.552 423.252 249.328C422.996 249.104 422.7 248.936 422.364 248.824C422.044 248.712 421.692 248.656 421.308 248.656C420.844 248.656 420.444 248.728 420.108 248.872C419.772 249.016 419.5 249.208 419.292 249.448C419.084 249.672 418.924 249.92 418.812 250.192C418.7 250.448 418.644 250.712 418.644 250.984C418.644 251.512 418.724 251.984 418.884 252.4C419.06 252.8 419.292 253.152 419.58 253.456L417.876 255.016C417.46 254.792 417.108 254.44 416.82 253.96C416.532 253.48 416.308 252.976 416.148 252.448C416.004 251.92 415.932 251.456 415.932 251.056C415.932 250.176 416.156 249.352 416.604 248.584C417.068 247.816 417.732 247.192 418.596 246.712C419.476 246.216 420.54 245.968 421.788 245.968C422.828 245.968 423.732 246.208 424.5 246.688C425.284 247.152 425.892 247.776 426.324 248.56C426.756 249.344 426.972 250.192 426.972 251.104C426.972 251.872 426.828 252.624 426.54 253.36C426.268 254.08 425.892 254.8 425.412 255.52C424.932 256.224 424.396 256.92 423.804 257.608C423.228 258.296 422.644 258.992 422.052 259.696L420.804 259.312H427.356V262H416.316ZM439.129 246.16L435.145 253L433.561 252.208C433.753 252.112 433.961 252.04 434.185 251.992C434.409 251.944 434.625 251.92 434.833 251.92C435.425 251.904 436.001 251.976 436.561 252.136C437.121 252.28 437.625 252.536 438.073 252.904C438.521 253.272 438.881 253.768 439.153 254.392C439.425 255.016 439.561 255.792 439.561 256.72C439.561 257.856 439.297 258.832 438.769 259.648C438.257 260.464 437.569 261.096 436.705 261.544C435.857 261.976 434.929 262.192 433.921 262.192C433.153 262.192 432.361 262.032 431.545 261.712C430.745 261.392 430.097 260.968 429.601 260.44L431.017 258.136C431.289 258.472 431.681 258.784 432.193 259.072C432.721 259.36 433.273 259.504 433.849 259.504C434.345 259.504 434.801 259.392 435.217 259.168C435.649 258.928 436.001 258.592 436.273 258.16C436.545 257.712 436.681 257.176 436.681 256.552C436.681 255.736 436.441 255.088 435.961 254.608C435.481 254.112 434.817 253.864 433.969 253.864C433.505 253.864 433.129 253.896 432.841 253.96C432.553 254.008 432.281 254.072 432.025 254.152L431.953 254.08L435.313 248.488L436.153 248.848H430.681V246.16H439.129Z" fill="black"/>
<rect x="251" y="622" width="284" height="140" rx="8" fill="#2D9EE0"/>
<path d="M343.837 655.856C343.539 656.155 343.091 656.443 342.493 656.72C341.917 656.997 341.267 657.253 340.541 657.488C339.816 657.723 339.069 657.904 338.301 658.032C337.533 658.181 336.808 658.256 336.125 658.256C334.248 658.256 332.552 657.968 331.037 657.392C329.544 656.816 328.253 656.027 327.165 655.024C326.099 654 325.277 652.795 324.701 651.408C324.147 650.021 323.869 648.517 323.869 646.896C323.869 644.869 324.189 643.088 324.829 641.552C325.469 639.995 326.344 638.693 327.453 637.648C328.563 636.581 329.832 635.781 331.261 635.248C332.712 634.715 334.237 634.448 335.837 634.448C337.245 634.448 338.547 634.608 339.741 634.928C340.957 635.248 341.992 635.653 342.845 636.144L341.629 639.6C341.224 639.365 340.701 639.141 340.061 638.928C339.421 638.693 338.771 638.512 338.109 638.384C337.469 638.256 336.872 638.192 336.317 638.192C334.973 638.192 333.768 638.384 332.701 638.768C331.656 639.131 330.76 639.675 330.013 640.4C329.267 641.125 328.691 642.011 328.285 643.056C327.901 644.08 327.709 645.253 327.709 646.576C327.709 647.771 327.912 648.859 328.317 649.84C328.744 650.821 329.331 651.664 330.077 652.368C330.845 653.072 331.741 653.616 332.765 654C333.811 654.363 334.963 654.544 336.221 654.544C336.947 654.544 337.651 654.48 338.333 654.352C339.016 654.224 339.592 654.021 340.061 653.744V649.872H335.709V646.288H343.837V655.856ZM351.993 644.464L352.313 648.304L352.185 647.76C352.569 646.949 353.092 646.256 353.753 645.68C354.436 645.083 355.129 644.635 355.833 644.336C356.537 644.016 357.113 643.856 357.561 643.856L357.401 647.44C356.377 647.355 355.481 647.547 354.713 648.016C353.966 648.464 353.38 649.061 352.953 649.808C352.548 650.555 352.345 651.344 352.345 652.176V658H348.761V644.464H351.993ZM366.551 658.352C365.271 658.352 364.108 658.085 363.063 657.552C362.039 657.019 361.228 656.229 360.631 655.184C360.033 654.117 359.735 652.805 359.735 651.248C359.735 649.712 360.044 648.4 360.663 647.312C361.303 646.203 362.135 645.349 363.159 644.752C364.204 644.155 365.335 643.856 366.551 643.856C367.852 643.856 368.897 644.112 369.687 644.624C370.497 645.136 371.127 645.744 371.575 646.448L371.383 646.96L371.735 644.464H375.031V658H371.447V654.704L371.799 655.568C371.713 655.696 371.543 655.909 371.287 656.208C371.031 656.485 370.679 656.795 370.231 657.136C369.783 657.477 369.249 657.765 368.631 658C368.033 658.235 367.34 658.352 366.551 658.352ZM367.543 655.408C368.183 655.408 368.759 655.291 369.271 655.056C369.804 654.821 370.252 654.491 370.615 654.064C370.999 653.637 371.276 653.125 371.447 652.528V649.584C371.276 649.029 370.999 648.549 370.615 648.144C370.231 647.717 369.761 647.387 369.207 647.152C368.673 646.917 368.076 646.8 367.415 646.8C366.689 646.8 366.017 646.981 365.399 647.344C364.78 647.707 364.279 648.208 363.895 648.848C363.532 649.488 363.351 650.224 363.351 651.056C363.351 651.867 363.543 652.603 363.927 653.264C364.311 653.925 364.823 654.448 365.463 654.832C366.103 655.216 366.796 655.408 367.543 655.408ZM384.044 658.288C383.02 658.288 382.038 658.107 381.1 657.744C380.182 657.381 379.404 656.848 378.764 656.144L380.3 654.128C380.897 654.704 381.484 655.131 382.06 655.408C382.657 655.664 383.222 655.792 383.756 655.792C384.161 655.792 384.524 655.749 384.844 655.664C385.185 655.557 385.452 655.397 385.644 655.184C385.857 654.971 385.964 654.683 385.964 654.32C385.964 653.893 385.814 653.563 385.516 653.328C385.217 653.072 384.833 652.869 384.364 652.72C383.894 652.549 383.404 652.389 382.892 652.24C381.718 651.877 380.844 651.344 380.268 650.64C379.692 649.936 379.404 649.125 379.404 648.208C379.404 647.504 379.585 646.832 379.948 646.192C380.31 645.531 380.865 644.987 381.612 644.56C382.358 644.133 383.297 643.92 384.428 643.92C385.452 643.92 386.337 644.037 387.084 644.272C387.852 644.485 388.566 644.859 389.228 645.392L387.852 647.536C387.468 647.173 387.009 646.896 386.476 646.704C385.964 646.491 385.494 646.373 385.068 646.352C384.684 646.331 384.342 646.384 384.044 646.512C383.745 646.619 383.5 646.779 383.308 646.992C383.137 647.205 383.052 647.451 383.052 647.728C383.03 648.155 383.169 648.496 383.468 648.752C383.788 649.008 384.193 649.211 384.684 649.36C385.174 649.509 385.665 649.669 386.156 649.84C386.817 650.032 387.404 650.299 387.916 650.64C388.428 650.981 388.822 651.397 389.1 651.888C389.398 652.357 389.548 652.944 389.548 653.648C389.548 654.459 389.345 655.227 388.94 655.952C388.534 656.656 387.926 657.221 387.116 657.648C386.305 658.075 385.281 658.288 384.044 658.288ZM397.575 658.288C396.551 658.288 395.57 658.107 394.631 657.744C393.714 657.381 392.935 656.848 392.295 656.144L393.831 654.128C394.428 654.704 395.015 655.131 395.591 655.408C396.188 655.664 396.754 655.792 397.287 655.792C397.692 655.792 398.055 655.749 398.375 655.664C398.716 655.557 398.983 655.397 399.175 655.184C399.388 654.971 399.495 654.683 399.495 654.32C399.495 653.893 399.346 653.563 399.047 653.328C398.748 653.072 398.364 652.869 397.895 652.72C397.426 652.549 396.935 652.389 396.423 652.24C395.25 651.877 394.375 651.344 393.799 650.64C393.223 649.936 392.935 649.125 392.935 648.208C392.935 647.504 393.116 646.832 393.479 646.192C393.842 645.531 394.396 644.987 395.143 644.56C395.89 644.133 396.828 643.92 397.959 643.92C398.983 643.92 399.868 644.037 400.615 644.272C401.383 644.485 402.098 644.859 402.759 645.392L401.383 647.536C400.999 647.173 400.54 646.896 400.007 646.704C399.495 646.491 399.026 646.373 398.599 646.352C398.215 646.331 397.874 646.384 397.575 646.512C397.276 646.619 397.031 646.779 396.839 646.992C396.668 647.205 396.583 647.451 396.583 647.728C396.562 648.155 396.7 648.496 396.999 648.752C397.319 649.008 397.724 649.211 398.215 649.36C398.706 649.509 399.196 649.669 399.687 649.84C400.348 650.032 400.935 650.299 401.447 650.64C401.959 650.981 402.354 651.397 402.631 651.888C402.93 652.357 403.079 652.944 403.079 653.648C403.079 654.459 402.876 655.227 402.471 655.952C402.066 656.656 401.458 657.221 400.647 657.648C399.836 658.075 398.812 658.288 397.575 658.288ZM410.274 644.464L410.594 648.304L410.466 647.76C410.85 646.949 411.373 646.256 412.034 645.68C412.717 645.083 413.41 644.635 414.114 644.336C414.818 644.016 415.394 643.856 415.842 643.856L415.682 647.44C414.658 647.355 413.762 647.547 412.994 648.016C412.247 648.464 411.661 649.061 411.234 649.808C410.829 650.555 410.626 651.344 410.626 652.176V658H407.042V644.464H410.274ZM417.797 651.088C417.797 649.723 418.117 648.496 418.757 647.408C419.397 646.299 420.293 645.435 421.445 644.816C422.618 644.176 423.941 643.856 425.413 643.856C426.928 643.856 428.24 644.176 429.349 644.816C430.48 645.435 431.354 646.299 431.973 647.408C432.592 648.496 432.901 649.723 432.901 651.088C432.901 652.453 432.592 653.691 431.973 654.8C431.354 655.888 430.48 656.752 429.349 657.392C428.24 658.032 426.917 658.352 425.381 658.352C423.93 658.352 422.629 658.064 421.477 657.488C420.325 656.891 419.418 656.048 418.757 654.96C418.117 653.872 417.797 652.581 417.797 651.088ZM421.413 651.12C421.413 651.909 421.584 652.635 421.925 653.296C422.266 653.936 422.736 654.448 423.333 654.832C423.93 655.216 424.592 655.408 425.317 655.408C426.106 655.408 426.789 655.216 427.365 654.832C427.962 654.448 428.421 653.936 428.741 653.296C429.082 652.635 429.253 651.909 429.253 651.12C429.253 650.309 429.082 649.584 428.741 648.944C428.421 648.283 427.962 647.76 427.365 647.376C426.789 646.992 426.106 646.8 425.317 646.8C424.57 646.8 423.898 647.003 423.301 647.408C422.725 647.792 422.266 648.304 421.925 648.944C421.584 649.584 421.413 650.309 421.413 651.12ZM435.547 651.088C435.547 649.723 435.867 648.496 436.507 647.408C437.147 646.299 438.043 645.435 439.195 644.816C440.368 644.176 441.691 643.856 443.163 643.856C444.678 643.856 445.99 644.176 447.099 644.816C448.23 645.435 449.104 646.299 449.723 647.408C450.342 648.496 450.651 649.723 450.651 651.088C450.651 652.453 450.342 653.691 449.723 654.8C449.104 655.888 448.23 656.752 447.099 657.392C445.99 658.032 444.667 658.352 443.131 658.352C441.68 658.352 440.379 658.064 439.227 657.488C438.075 656.891 437.168 656.048 436.507 654.96C435.867 653.872 435.547 652.581 435.547 651.088ZM439.163 651.12C439.163 651.909 439.334 652.635 439.675 653.296C440.016 653.936 440.486 654.448 441.083 654.832C441.68 655.216 442.342 655.408 443.067 655.408C443.856 655.408 444.539 655.216 445.115 654.832C445.712 654.448 446.171 653.936 446.491 653.296C446.832 652.635 447.003 651.909 447.003 651.12C447.003 650.309 446.832 649.584 446.491 648.944C446.171 648.283 445.712 647.76 445.115 647.376C444.539 646.992 443.856 646.8 443.067 646.8C442.32 646.8 441.648 647.003 441.051 647.408C440.475 647.792 440.016 648.304 439.675 648.944C439.334 649.584 439.163 650.309 439.163 651.12ZM455.697 638.512H459.313V644.464H462.833V647.28H459.313V658H455.697V647.28H453.393V644.464H455.697V638.512ZM330.136 704.176C329.816 704.411 329.315 704.699 328.632 705.04C327.95 705.381 327.139 705.68 326.2 705.936C325.283 706.171 324.259 706.277 323.128 706.256C321.315 706.235 319.683 705.915 318.232 705.296C316.782 704.656 315.555 703.803 314.552 702.736C313.55 701.648 312.771 700.411 312.216 699.024C311.683 697.616 311.416 696.123 311.416 694.544C311.416 692.773 311.694 691.152 312.248 689.68C312.803 688.208 313.592 686.939 314.616 685.872C315.64 684.784 316.856 683.941 318.264 683.344C319.672 682.747 321.208 682.448 322.872 682.448C324.344 682.448 325.656 682.651 326.808 683.056C327.982 683.44 328.963 683.877 329.752 684.368L328.28 687.888C327.683 687.461 326.936 687.045 326.04 686.64C325.144 686.235 324.131 686.032 323 686.032C321.976 686.032 320.995 686.245 320.056 686.672C319.118 687.077 318.296 687.664 317.592 688.432C316.888 689.179 316.323 690.053 315.896 691.056C315.491 692.059 315.288 693.147 315.288 694.32C315.288 695.536 315.47 696.656 315.832 697.68C316.216 698.683 316.75 699.557 317.432 700.304C318.136 701.051 318.968 701.637 319.928 702.064C320.91 702.469 321.998 702.672 323.192 702.672C324.408 702.672 325.464 702.491 326.36 702.128C327.278 701.744 328.014 701.317 328.568 700.848L330.136 704.176ZM333.25 699.088C333.25 697.723 333.57 696.496 334.21 695.408C334.85 694.299 335.746 693.435 336.898 692.816C338.072 692.176 339.394 691.856 340.866 691.856C342.381 691.856 343.693 692.176 344.802 692.816C345.933 693.435 346.808 694.299 347.426 695.408C348.045 696.496 348.354 697.723 348.354 699.088C348.354 700.453 348.045 701.691 347.426 702.8C346.808 703.888 345.933 704.752 344.802 705.392C343.693 706.032 342.37 706.352 340.834 706.352C339.384 706.352 338.082 706.064 336.93 705.488C335.778 704.891 334.872 704.048 334.21 702.96C333.57 701.872 333.25 700.581 333.25 699.088ZM336.866 699.12C336.866 699.909 337.037 700.635 337.378 701.296C337.72 701.936 338.189 702.448 338.786 702.832C339.384 703.216 340.045 703.408 340.77 703.408C341.56 703.408 342.242 703.216 342.818 702.832C343.416 702.448 343.874 701.936 344.194 701.296C344.536 700.635 344.706 699.909 344.706 699.12C344.706 698.309 344.536 697.584 344.194 696.944C343.874 696.283 343.416 695.76 342.818 695.376C342.242 694.992 341.56 694.8 340.77 694.8C340.024 694.8 339.352 695.003 338.754 695.408C338.178 695.792 337.72 696.304 337.378 696.944C337.037 697.584 336.866 698.309 336.866 699.12ZM355.352 692.464L355.672 695.216L355.544 694.992C356.056 694.011 356.75 693.243 357.624 692.688C358.52 692.133 359.555 691.856 360.728 691.856C361.475 691.856 362.136 691.973 362.712 692.208C363.288 692.443 363.768 692.773 364.152 693.2C364.558 693.627 364.824 694.16 364.952 694.8L364.76 694.864C365.315 693.947 366.03 693.221 366.904 692.688C367.779 692.133 368.707 691.856 369.688 691.856C371.011 691.856 372.067 692.24 372.856 693.008C373.646 693.755 374.051 694.725 374.072 695.92V706H370.52V697.328C370.499 696.667 370.36 696.123 370.104 695.696C369.848 695.248 369.368 695.003 368.664 694.96C367.896 694.96 367.235 695.205 366.68 695.696C366.126 696.165 365.688 696.784 365.368 697.552C365.07 698.299 364.92 699.099 364.92 699.952V706H361.304V697.328C361.283 696.667 361.134 696.123 360.856 695.696C360.579 695.248 360.088 695.003 359.384 694.96C358.638 694.96 357.987 695.205 357.432 695.696C356.878 696.165 356.451 696.784 356.152 697.552C355.854 698.299 355.704 699.088 355.704 699.92V706H352.12V692.464H355.352ZM382.227 692.464L382.547 695.216L382.419 694.992C382.931 694.011 383.625 693.243 384.499 692.688C385.395 692.133 386.43 691.856 387.603 691.856C388.35 691.856 389.011 691.973 389.587 692.208C390.163 692.443 390.643 692.773 391.027 693.2C391.433 693.627 391.699 694.16 391.827 694.8L391.635 694.864C392.19 693.947 392.905 693.221 393.779 692.688C394.654 692.133 395.582 691.856 396.563 691.856C397.886 691.856 398.942 692.24 399.731 693.008C400.521 693.755 400.926 694.725 400.947 695.92V706H397.395V697.328C397.374 696.667 397.235 696.123 396.979 695.696C396.723 695.248 396.243 695.003 395.539 694.96C394.771 694.96 394.11 695.205 393.555 695.696C393.001 696.165 392.563 696.784 392.243 697.552C391.945 698.299 391.795 699.099 391.795 699.952V706H388.179V697.328C388.158 696.667 388.009 696.123 387.731 695.696C387.454 695.248 386.963 695.003 386.259 694.96C385.513 694.96 384.862 695.205 384.307 695.696C383.753 696.165 383.326 696.784 383.027 697.552C382.729 698.299 382.579 699.088 382.579 699.92V706H378.995V692.464H382.227ZM410.222 706.576C408.985 706.576 407.961 706.203 407.15 705.456C406.34 704.688 405.913 703.707 405.87 702.512V692.464H409.454V701.232C409.497 701.893 409.689 702.437 410.03 702.864C410.372 703.291 410.916 703.504 411.662 703.504C412.366 703.504 412.996 703.291 413.55 702.864C414.105 702.416 414.532 701.808 414.83 701.04C415.15 700.272 415.31 699.408 415.31 698.448V692.464H418.894V706H415.662L415.374 703.024L415.47 703.504C415.193 704.08 414.798 704.613 414.286 705.104C413.774 705.573 413.166 705.936 412.462 706.192C411.78 706.448 411.033 706.576 410.222 706.576ZM427.071 692.464L427.391 695.376L427.263 694.992C427.732 694.053 428.426 693.307 429.343 692.752C430.282 692.176 431.391 691.888 432.671 691.888C433.951 691.888 435.007 692.261 435.839 693.008C436.671 693.755 437.098 694.736 437.119 695.952V706H433.535V697.232C433.514 696.549 433.322 696.005 432.959 695.6C432.596 695.173 432.02 694.949 431.231 694.928C430.506 694.928 429.855 695.152 429.279 695.6C428.703 696.027 428.244 696.624 427.903 697.392C427.583 698.139 427.423 699.003 427.423 699.984V706H423.839V692.464H427.071ZM442.058 692.464H445.642V706H442.058V692.464ZM441.898 687.632C441.898 687.077 442.111 686.619 442.538 686.256C442.986 685.893 443.466 685.712 443.978 685.712C444.49 685.712 444.948 685.893 445.354 686.256C445.78 686.619 445.994 687.077 445.994 687.632C445.994 688.187 445.78 688.645 445.354 689.008C444.948 689.349 444.49 689.52 443.978 689.52C443.466 689.52 442.986 689.339 442.538 688.976C442.111 688.613 441.898 688.165 441.898 687.632ZM451.838 686.512H455.454V692.464H458.974V695.28H455.454V706H451.838V695.28H449.534V692.464H451.838V686.512ZM463.615 712.496L472.607 692.464H475.871L467.135 712.496H463.615ZM467.103 706.096L460.511 692.464H464.543L469.855 704.272L467.103 706.096Z" fill="black"/>
<path d="M359.197 743.264H364.957V746H355.525L359.197 743.264ZM346.261 737.288C346.261 736.072 346.493 734.928 346.957 733.856C347.421 732.784 348.061 731.832 348.877 731C349.693 730.168 350.637 729.52 351.709 729.056C352.797 728.576 353.957 728.336 355.189 728.336C356.405 728.336 357.549 728.576 358.621 729.056C359.709 729.52 360.661 730.168 361.477 731C362.309 731.832 362.957 732.784 363.421 733.856C363.901 734.928 364.141 736.072 364.141 737.288C364.141 738.52 363.901 739.672 363.421 740.744C362.957 741.816 362.309 742.768 361.477 743.6C360.661 744.416 359.709 745.056 358.621 745.52C357.549 745.968 356.405 746.192 355.189 746.192C353.941 746.192 352.781 745.968 351.709 745.52C350.637 745.056 349.693 744.424 348.877 743.624C348.061 742.808 347.421 741.864 346.957 740.792C346.493 739.704 346.261 738.536 346.261 737.288ZM349.141 737.288C349.141 738.136 349.293 738.936 349.597 739.688C349.917 740.44 350.357 741.104 350.917 741.68C351.477 742.24 352.125 742.68 352.861 743C353.597 743.32 354.397 743.48 355.261 743.48C356.093 743.48 356.869 743.32 357.589 743C358.325 742.68 358.965 742.24 359.509 741.68C360.053 741.12 360.477 740.464 360.781 739.712C361.101 738.96 361.261 738.152 361.261 737.288C361.261 736.44 361.101 735.64 360.781 734.888C360.461 734.136 360.029 733.48 359.485 732.92C358.941 732.344 358.301 731.896 357.565 731.576C356.829 731.256 356.037 731.096 355.189 731.096C354.341 731.096 353.549 731.256 352.813 731.576C352.077 731.896 351.429 732.344 350.869 732.92C350.325 733.496 349.901 734.16 349.597 734.912C349.293 735.664 349.141 736.456 349.141 737.288ZM376.973 730.16L372.989 737L371.405 736.208C371.597 736.112 371.805 736.04 372.029 735.992C372.253 735.944 372.469 735.92 372.677 735.92C373.269 735.904 373.845 735.976 374.405 736.136C374.965 736.28 375.469 736.536 375.917 736.904C376.365 737.272 376.725 737.768 376.997 738.392C377.269 739.016 377.405 739.792 377.405 740.72C377.405 741.856 377.141 742.832 376.613 743.648C376.101 744.464 375.413 745.096 374.549 745.544C373.701 745.976 372.773 746.192 371.765 746.192C370.997 746.192 370.205 746.032 369.389 745.712C368.589 745.392 367.941 744.968 367.445 744.44L368.861 742.136C369.133 742.472 369.525 742.784 370.037 743.072C370.565 743.36 371.117 743.504 371.693 743.504C372.189 743.504 372.645 743.392 373.061 743.168C373.493 742.928 373.845 742.592 374.117 742.16C374.389 741.712 374.525 741.176 374.525 740.552C374.525 739.736 374.285 739.088 373.805 738.608C373.325 738.112 372.661 737.864 371.813 737.864C371.349 737.864 370.973 737.896 370.685 737.96C370.397 738.008 370.125 738.072 369.869 738.152L369.797 738.08L373.157 732.488L373.997 732.848H368.525V730.16H376.973ZM387.886 746C388.878 744.992 389.838 744.016 390.766 743.072C391.694 742.128 392.526 741.216 393.262 740.336C393.998 739.44 394.574 738.584 394.99 737.768C395.422 736.936 395.638 736.128 395.638 735.344C395.638 734.896 395.566 734.504 395.422 734.168C395.278 733.832 395.078 733.552 394.822 733.328C394.566 733.104 394.27 732.936 393.934 732.824C393.614 732.712 393.262 732.656 392.878 732.656C392.414 732.656 392.014 732.728 391.678 732.872C391.342 733.016 391.07 733.208 390.862 733.448C390.654 733.672 390.494 733.92 390.382 734.192C390.27 734.448 390.214 734.712 390.214 734.984C390.214 735.512 390.294 735.984 390.454 736.4C390.63 736.8 390.862 737.152 391.15 737.456L389.446 739.016C389.03 738.792 388.678 738.44 388.39 737.96C388.102 737.48 387.878 736.976 387.718 736.448C387.574 735.92 387.502 735.456 387.502 735.056C387.502 734.176 387.726 733.352 388.174 732.584C388.638 731.816 389.302 731.192 390.166 730.712C391.046 730.216 392.11 729.968 393.358 729.968C394.398 729.968 395.302 730.208 396.07 730.688C396.854 731.152 397.462 731.776 397.894 732.56C398.326 733.344 398.542 734.192 398.542 735.104C398.542 735.872 398.398 736.624 398.11 737.36C397.838 738.08 397.462 738.8 396.982 739.52C396.502 740.224 395.966 740.92 395.374 741.608C394.798 742.296 394.214 742.992 393.622 743.696L392.374 743.312H398.926V746H387.886ZM407.532 746.048C406.572 746.048 405.684 745.88 404.868 745.544C404.068 745.192 403.364 744.672 402.756 743.984C402.164 743.296 401.7 742.456 401.364 741.464C401.028 740.456 400.86 739.304 400.86 738.008C400.86 736.6 401.02 735.392 401.34 734.384C401.676 733.36 402.132 732.52 402.708 731.864C403.3 731.208 404.004 730.736 404.82 730.448C405.636 730.144 406.54 729.992 407.532 729.992C408.476 729.992 409.348 730.168 410.148 730.52C410.964 730.856 411.668 731.368 412.26 732.056C412.868 732.728 413.34 733.568 413.676 734.576C414.012 735.568 414.18 736.712 414.18 738.008C414.18 739.336 414.012 740.504 413.676 741.512C413.34 742.52 412.868 743.36 412.26 744.032C411.652 744.704 410.948 745.208 410.148 745.544C409.348 745.88 408.476 746.048 407.532 746.048ZM407.508 743.384C408.388 743.384 409.1 743.152 409.644 742.688C410.204 742.224 410.612 741.584 410.868 740.768C411.14 739.936 411.276 738.992 411.276 737.936C411.276 736.912 411.14 736.008 410.868 735.224C410.612 734.424 410.204 733.8 409.644 733.352C409.1 732.888 408.388 732.664 407.508 732.68C406.644 732.664 405.932 732.888 405.372 733.352C404.828 733.816 404.42 734.448 404.148 735.248C403.892 736.048 403.764 736.968 403.764 738.008C403.764 739.032 403.892 739.952 404.148 740.768C404.42 741.584 404.828 742.224 405.372 742.688C405.932 743.152 406.644 743.384 407.508 743.384ZM416.316 746C417.308 744.992 418.268 744.016 419.196 743.072C420.124 742.128 420.956 741.216 421.692 740.336C422.428 739.44 423.004 738.584 423.42 737.768C423.852 736.936 424.068 736.128 424.068 735.344C424.068 734.896 423.996 734.504 423.852 734.168C423.708 733.832 423.508 733.552 423.252 733.328C422.996 733.104 422.7 732.936 422.364 732.824C422.044 732.712 421.692 732.656 421.308 732.656C420.844 732.656 420.444 732.728 420.108 732.872C419.772 733.016 419.5 733.208 419.292 733.448C419.084 733.672 418.924 733.92 418.812 734.192C418.7 734.448 418.644 734.712 418.644 734.984C418.644 735.512 418.724 735.984 418.884 736.4C419.06 736.8 419.292 737.152 419.58 737.456L417.876 739.016C417.46 738.792 417.108 738.44 416.82 737.96C416.532 737.48 416.308 736.976 416.148 736.448C416.004 735.92 415.932 735.456 415.932 735.056C415.932 734.176 416.156 733.352 416.604 732.584C417.068 731.816 417.732 731.192 418.596 730.712C419.476 730.216 420.54 729.968 421.788 729.968C422.828 729.968 423.732 730.208 424.5 730.688C425.284 731.152 425.892 731.776 426.324 732.56C426.756 733.344 426.972 734.192 426.972 735.104C426.972 735.872 426.828 736.624 426.54 737.36C426.268 738.08 425.892 738.8 425.412 739.52C424.932 740.224 424.396 740.92 423.804 741.608C423.228 742.296 422.644 742.992 422.052 743.696L420.804 743.312H427.356V746H416.316ZM439.129 730.16L435.145 737L433.561 736.208C433.753 736.112 433.961 736.04 434.185 735.992C434.409 735.944 434.625 735.92 434.833 735.92C435.425 735.904 436.001 735.976 436.561 736.136C437.121 736.28 437.625 736.536 438.073 736.904C438.521 737.272 438.881 737.768 439.153 738.392C439.425 739.016 439.561 739.792 439.561 740.72C439.561 741.856 439.297 742.832 438.769 743.648C438.257 744.464 437.569 745.096 436.705 745.544C435.857 745.976 434.929 746.192 433.921 746.192C433.153 746.192 432.361 746.032 431.545 745.712C430.745 745.392 430.097 744.968 429.601 744.44L431.017 742.136C431.289 742.472 431.681 742.784 432.193 743.072C432.721 743.36 433.273 743.504 433.849 743.504C434.345 743.504 434.801 743.392 435.217 743.168C435.649 742.928 436.001 742.592 436.273 742.16C436.545 741.712 436.681 741.176 436.681 740.552C436.681 739.736 436.441 739.088 435.961 738.608C435.481 738.112 434.817 737.864 433.969 737.864C433.505 737.864 433.129 737.896 432.841 737.96C432.553 738.008 432.281 738.072 432.025 738.152L431.953 738.08L435.313 732.488L436.153 732.848H430.681V730.16H439.129Z" fill="black"/>
<rect x="683" y="150" width="284" height="140" rx="8" fill="#A08AE5"/>
<rect x="682.5" y="156" width="285" height="132" rx="8" fill="#A08AE5"/>
<path d="M750.95 164.704H766.406V168.288H754.694V174.496H765.126V178.112H754.694V184.416H766.854V188H750.95V164.704ZM776.973 188.352C775.693 188.352 774.53 188.085 773.485 187.552C772.461 187.019 771.65 186.229 771.053 185.184C770.455 184.117 770.157 182.805 770.157 181.248C770.157 179.712 770.466 178.4 771.085 177.312C771.725 176.203 772.557 175.349 773.581 174.752C774.626 174.155 775.757 173.856 776.973 173.856C778.274 173.856 779.319 174.112 780.109 174.624C780.919 175.136 781.549 175.744 781.997 176.448L781.805 176.96L782.157 174.464H785.453V188H781.869V184.704L782.221 185.568C782.135 185.696 781.965 185.909 781.709 186.208C781.453 186.485 781.101 186.795 780.653 187.136C780.205 187.477 779.671 187.765 779.053 188C778.455 188.235 777.762 188.352 776.973 188.352ZM777.965 185.408C778.605 185.408 779.181 185.291 779.693 185.056C780.226 184.821 780.674 184.491 781.037 184.064C781.421 183.637 781.698 183.125 781.869 182.528V179.584C781.698 179.029 781.421 178.549 781.037 178.144C780.653 177.717 780.183 177.387 779.629 177.152C779.095 176.917 778.498 176.8 777.837 176.8C777.111 176.8 776.439 176.981 775.821 177.344C775.202 177.707 774.701 178.208 774.317 178.848C773.954 179.488 773.773 180.224 773.773 181.056C773.773 181.867 773.965 182.603 774.349 183.264C774.733 183.925 775.245 184.448 775.885 184.832C776.525 185.216 777.218 185.408 777.965 185.408ZM793.634 174.464L793.954 178.304L793.826 177.76C794.21 176.949 794.732 176.256 795.394 175.68C796.076 175.083 796.77 174.635 797.474 174.336C798.178 174.016 798.754 173.856 799.202 173.856L799.042 177.44C798.018 177.355 797.122 177.547 796.354 178.016C795.607 178.464 795.02 179.061 794.594 179.808C794.188 180.555 793.986 181.344 793.986 182.176V188H790.402V174.464H793.634ZM802.87 163.04H806.454V188H802.87V163.04ZM812.49 194.496L821.482 174.464H824.746L816.01 194.496H812.49ZM815.978 188.096L809.386 174.464H813.418L818.73 186.272L815.978 188.096ZM842.029 179.616C842.029 180.533 842.263 181.376 842.733 182.144C843.223 182.891 843.863 183.499 844.653 183.968C845.442 184.416 846.327 184.64 847.309 184.64C848.333 184.64 849.25 184.416 850.061 183.968C850.871 183.499 851.511 182.891 851.981 182.144C852.45 181.376 852.685 180.533 852.685 179.616V164.704H856.365V179.712C856.365 181.397 855.959 182.891 855.149 184.192C854.338 185.472 853.25 186.475 851.885 187.2C850.519 187.904 848.994 188.256 847.309 188.256C845.645 188.256 844.13 187.904 842.765 187.2C841.399 186.475 840.311 185.472 839.501 184.192C838.711 182.891 838.317 181.397 838.317 179.712V164.704H842.029V179.616ZM865.716 188.288C864.692 188.288 863.71 188.107 862.772 187.744C861.854 187.381 861.076 186.848 860.436 186.144L861.972 184.128C862.569 184.704 863.156 185.131 863.732 185.408C864.329 185.664 864.894 185.792 865.428 185.792C865.833 185.792 866.196 185.749 866.516 185.664C866.857 185.557 867.124 185.397 867.316 185.184C867.529 184.971 867.635 184.683 867.635 184.32C867.635 183.893 867.486 183.563 867.188 183.328C866.889 183.072 866.505 182.869 866.036 182.72C865.566 182.549 865.076 182.389 864.564 182.24C863.39 181.877 862.516 181.344 861.94 180.64C861.364 179.936 861.076 179.125 861.076 178.208C861.076 177.504 861.257 176.832 861.62 176.192C861.982 175.531 862.537 174.987 863.284 174.56C864.03 174.133 864.969 173.92 866.1 173.92C867.124 173.92 868.009 174.037 868.756 174.272C869.524 174.485 870.238 174.859 870.9 175.392L869.524 177.536C869.14 177.173 868.681 176.896 868.148 176.704C867.636 176.491 867.166 176.373 866.74 176.352C866.356 176.331 866.014 176.384 865.716 176.512C865.417 176.619 865.172 176.779 864.98 176.992C864.809 177.205 864.724 177.451 864.724 177.728C864.702 178.155 864.841 178.496 865.14 178.752C865.46 179.008 865.865 179.211 866.356 179.36C866.846 179.509 867.337 179.669 867.828 179.84C868.489 180.032 869.076 180.299 869.588 180.64C870.1 180.981 870.494 181.397 870.772 181.888C871.07 182.357 871.22 182.944 871.22 183.648C871.22 184.459 871.017 185.227 870.612 185.952C870.206 186.656 869.598 187.221 868.788 187.648C867.977 188.075 866.953 188.288 865.716 188.288ZM881.647 188.352C880.047 188.352 878.681 188.043 877.551 187.424C876.42 186.805 875.556 185.952 874.959 184.864C874.361 183.755 874.063 182.507 874.063 181.12C874.063 179.755 874.404 178.528 875.087 177.44C875.769 176.352 876.687 175.488 877.839 174.848C879.012 174.187 880.303 173.856 881.711 173.856C883.567 173.856 885.092 174.4 886.287 175.488C887.503 176.555 888.313 178.069 888.719 180.032L877.807 183.712L876.975 181.696L885.487 178.656L884.751 179.072C884.516 178.432 884.132 177.877 883.599 177.408C883.087 176.939 882.361 176.704 881.423 176.704C880.676 176.704 880.015 176.885 879.439 177.248C878.863 177.589 878.404 178.08 878.063 178.72C877.743 179.339 877.583 180.075 877.583 180.928C877.583 181.803 877.764 182.571 878.127 183.232C878.489 183.893 878.98 184.405 879.599 184.768C880.217 185.109 880.921 185.28 881.711 185.28C882.265 185.28 882.799 185.184 883.311 184.992C883.823 184.8 884.303 184.544 884.751 184.224L886.383 186.88C885.679 187.328 884.9 187.691 884.047 187.968C883.215 188.224 882.415 188.352 881.647 188.352ZM895.477 174.464L895.797 178.304L895.669 177.76C896.053 176.949 896.576 176.256 897.237 175.68C897.92 175.083 898.613 174.635 899.317 174.336C900.021 174.016 900.597 173.856 901.045 173.856L900.885 177.44C899.861 177.355 898.965 177.547 898.197 178.016C897.451 178.464 896.864 179.061 896.437 179.808C896.032 180.555 895.829 181.344 895.829 182.176V188H892.245V174.464H895.477ZM737.057 224.384C737.057 222.763 737.366 221.237 737.985 219.808C738.604 218.379 739.457 217.109 740.545 216C741.633 214.891 742.892 214.027 744.321 213.408C745.772 212.768 747.318 212.448 748.961 212.448C750.582 212.448 752.108 212.768 753.537 213.408C754.988 214.027 756.257 214.891 757.345 216C758.454 217.109 759.318 218.379 759.937 219.808C760.577 221.237 760.897 222.763 760.897 224.384C760.897 226.027 760.577 227.563 759.937 228.992C759.318 230.421 758.454 231.691 757.345 232.8C756.257 233.888 754.988 234.741 753.537 235.36C752.108 235.957 750.582 236.256 748.961 236.256C747.297 236.256 745.75 235.957 744.321 235.36C742.892 234.741 741.633 233.899 740.545 232.832C739.457 231.744 738.604 230.485 737.985 229.056C737.366 227.605 737.057 226.048 737.057 224.384ZM740.897 224.384C740.897 225.536 741.1 226.613 741.505 227.616C741.932 228.619 742.518 229.504 743.265 230.272C744.012 231.019 744.876 231.605 745.857 232.032C746.838 232.459 747.905 232.672 749.057 232.672C750.166 232.672 751.201 232.459 752.161 232.032C753.142 231.605 753.996 231.019 754.721 230.272C755.446 229.504 756.012 228.619 756.417 227.616C756.844 226.613 757.057 225.536 757.057 224.384C757.057 223.211 756.844 222.123 756.417 221.12C755.99 220.117 755.414 219.232 754.689 218.464C753.964 217.696 753.11 217.099 752.129 216.672C751.148 216.245 750.092 216.032 748.961 216.032C747.83 216.032 746.774 216.245 745.793 216.672C744.812 217.099 743.948 217.696 743.201 218.464C742.476 219.232 741.91 220.128 741.505 221.152C741.1 222.155 740.897 223.232 740.897 224.384ZM768.368 222.464L768.688 225.376L768.56 224.992C769.029 224.053 769.723 223.307 770.64 222.752C771.579 222.176 772.688 221.888 773.968 221.888C775.248 221.888 776.304 222.261 777.136 223.008C777.968 223.755 778.395 224.736 778.416 225.952V236H774.832V227.232C774.811 226.549 774.619 226.005 774.256 225.6C773.893 225.173 773.317 224.949 772.528 224.928C771.803 224.928 771.152 225.152 770.576 225.6C770 226.027 769.541 226.624 769.2 227.392C768.88 228.139 768.72 229.003 768.72 229.984V236H765.136V222.464H768.368ZM791.899 236.352C790.683 236.352 789.637 236.117 788.763 235.648C787.888 235.157 787.173 234.539 786.619 233.792L786.939 232.864V236H783.355V211.04H786.939V225.248L786.875 223.968C787.408 223.349 788.155 222.848 789.115 222.464C790.075 222.059 791.163 221.856 792.379 221.856C793.573 221.856 794.661 222.144 795.643 222.72C796.645 223.275 797.445 224.085 798.043 225.152C798.64 226.219 798.939 227.499 798.939 228.992C798.939 230.507 798.608 231.819 797.947 232.928C797.307 234.037 796.443 234.891 795.355 235.488C794.288 236.064 793.136 236.352 791.899 236.352ZM791.131 233.312C791.899 233.312 792.592 233.131 793.211 232.768C793.851 232.384 794.352 231.861 794.715 231.2C795.099 230.539 795.291 229.792 795.291 228.96C795.291 228.149 795.099 227.424 794.715 226.784C794.352 226.144 793.851 225.643 793.211 225.28C792.592 224.896 791.899 224.704 791.131 224.704C790.448 224.704 789.819 224.821 789.243 225.056C788.688 225.291 788.208 225.621 787.803 226.048C787.419 226.453 787.131 226.933 786.939 227.488V230.496C787.152 231.051 787.451 231.541 787.835 231.968C788.219 232.395 788.688 232.725 789.243 232.96C789.819 233.195 790.448 233.312 791.131 233.312ZM801.61 229.088C801.61 227.723 801.93 226.496 802.57 225.408C803.21 224.299 804.106 223.435 805.258 222.816C806.431 222.176 807.754 221.856 809.226 221.856C810.74 221.856 812.052 222.176 813.162 222.816C814.292 223.435 815.167 224.299 815.786 225.408C816.404 226.496 816.714 227.723 816.714 229.088C816.714 230.453 816.404 231.691 815.786 232.8C815.167 233.888 814.292 234.752 813.162 235.392C812.052 236.032 810.73 236.352 809.194 236.352C807.743 236.352 806.442 236.064 805.29 235.488C804.138 234.891 803.231 234.048 802.57 232.96C801.93 231.872 801.61 230.581 801.61 229.088ZM805.226 229.12C805.226 229.909 805.396 230.635 805.738 231.296C806.079 231.936 806.548 232.448 807.146 232.832C807.743 233.216 808.404 233.408 809.13 233.408C809.919 233.408 810.602 233.216 811.178 232.832C811.775 232.448 812.234 231.936 812.554 231.296C812.895 230.635 813.066 229.909 813.066 229.12C813.066 228.309 812.895 227.584 812.554 226.944C812.234 226.283 811.775 225.76 811.178 225.376C810.602 224.992 809.919 224.8 809.13 224.8C808.383 224.8 807.711 225.003 807.114 225.408C806.538 225.792 806.079 226.304 805.738 226.944C805.396 227.584 805.226 228.309 805.226 229.12ZM826.176 236.352C824.896 236.352 823.733 236.085 822.688 235.552C821.664 235.019 820.853 234.229 820.256 233.184C819.658 232.117 819.36 230.805 819.36 229.248C819.36 227.712 819.669 226.4 820.288 225.312C820.928 224.203 821.76 223.349 822.784 222.752C823.829 222.155 824.96 221.856 826.176 221.856C827.477 221.856 828.522 222.112 829.312 222.624C830.122 223.136 830.752 223.744 831.2 224.448L831.008 224.96L831.36 222.464H834.656V236H831.072V232.704L831.424 233.568C831.338 233.696 831.168 233.909 830.912 234.208C830.656 234.485 830.304 234.795 829.856 235.136C829.408 235.477 828.874 235.765 828.256 236C827.658 236.235 826.965 236.352 826.176 236.352ZM827.168 233.408C827.808 233.408 828.384 233.291 828.896 233.056C829.429 232.821 829.877 232.491 830.24 232.064C830.624 231.637 830.901 231.125 831.072 230.528V227.584C830.901 227.029 830.624 226.549 830.24 226.144C829.856 225.717 829.386 225.387 828.832 225.152C828.298 224.917 827.701 224.8 827.04 224.8C826.314 224.8 825.642 224.981 825.024 225.344C824.405 225.707 823.904 226.208 823.52 226.848C823.157 227.488 822.976 228.224 822.976 229.056C822.976 229.867 823.168 230.603 823.552 231.264C823.936 231.925 824.448 232.448 825.088 232.832C825.728 233.216 826.421 233.408 827.168 233.408ZM842.837 222.464L843.157 226.304L843.029 225.76C843.413 224.949 843.935 224.256 844.597 223.68C845.279 223.083 845.973 222.635 846.677 222.336C847.381 222.016 847.957 221.856 848.405 221.856L848.245 225.44C847.221 225.355 846.325 225.547 845.557 226.016C844.81 226.464 844.223 227.061 843.797 227.808C843.391 228.555 843.189 229.344 843.189 230.176V236H839.605V222.464H842.837ZM857.016 236.352C855.736 236.352 854.594 236.053 853.592 235.456C852.589 234.859 851.8 234.005 851.224 232.896C850.648 231.787 850.36 230.496 850.36 229.024C850.36 227.509 850.669 226.219 851.288 225.152C851.906 224.085 852.749 223.275 853.816 222.72C854.904 222.144 856.12 221.856 857.464 221.856C858.445 221.856 859.384 222.048 860.28 222.432C861.176 222.795 861.89 223.328 862.424 224.032L862.36 225.248V211.04H865.912V236H862.328V232.96L862.68 233.824C861.997 234.549 861.176 235.157 860.216 235.648C859.277 236.117 858.21 236.352 857.016 236.352ZM858.168 233.312C858.872 233.312 859.49 233.195 860.024 232.96C860.578 232.725 861.048 232.395 861.432 231.968C861.837 231.52 862.136 230.997 862.328 230.4V227.52C862.157 226.965 861.869 226.475 861.464 226.048C861.08 225.621 860.6 225.291 860.024 225.056C859.448 224.821 858.829 224.704 858.168 224.704C857.4 224.704 856.696 224.885 856.056 225.248C855.437 225.611 854.936 226.112 854.552 226.752C854.168 227.392 853.976 228.128 853.976 228.96C853.976 229.771 854.168 230.507 854.552 231.168C854.936 231.829 855.448 232.352 856.088 232.736C856.728 233.12 857.421 233.312 858.168 233.312ZM870.855 222.464H874.439V236H870.855V222.464ZM870.695 217.632C870.695 217.077 870.908 216.619 871.335 216.256C871.783 215.893 872.263 215.712 872.775 215.712C873.287 215.712 873.745 215.893 874.151 216.256C874.577 216.619 874.791 217.077 874.791 217.632C874.791 218.187 874.577 218.645 874.151 219.008C873.745 219.349 873.287 219.52 872.775 219.52C872.263 219.52 871.783 219.339 871.335 218.976C870.908 218.613 870.695 218.165 870.695 217.632ZM882.587 222.464L882.907 225.376L882.779 224.992C883.248 224.053 883.941 223.307 884.859 222.752C885.797 222.176 886.907 221.888 888.187 221.888C889.467 221.888 890.523 222.261 891.355 223.008C892.187 223.755 892.613 224.736 892.635 225.952V236H889.051V227.232C889.029 226.549 888.837 226.005 888.475 225.6C888.112 225.173 887.536 224.949 886.747 224.928C886.021 224.928 885.371 225.152 884.795 225.6C884.219 226.027 883.76 226.624 883.419 227.392C883.099 228.139 882.939 229.003 882.939 229.984V236H879.355V222.464H882.587ZM904.325 242.752C903.216 242.752 902.267 242.624 901.477 242.368C900.688 242.112 899.984 241.771 899.365 241.344C898.768 240.939 898.203 240.512 897.669 240.064L899.781 237.6C900.4 238.176 901.051 238.656 901.733 239.04C902.437 239.424 903.28 239.616 904.261 239.616C905.136 239.616 905.893 239.467 906.533 239.168C907.195 238.869 907.707 238.453 908.069 237.92C908.432 237.387 908.624 236.747 908.645 236V232.64L908.869 233.312C908.507 234.144 907.845 234.859 906.885 235.456C905.925 236.053 904.731 236.352 903.301 236.352C902.064 236.352 900.923 236.043 899.877 235.424C898.832 234.784 898 233.92 897.381 232.832C896.763 231.744 896.453 230.517 896.453 229.152C896.453 227.744 896.773 226.496 897.413 225.408C898.075 224.299 898.939 223.435 900.005 222.816C901.093 222.176 902.245 221.856 903.461 221.856C904.656 221.856 905.712 222.069 906.629 222.496C907.568 222.923 908.272 223.456 908.741 224.096L908.549 224.608L908.933 222.464H912.229V236.064C912.229 237.323 911.888 238.453 911.205 239.456C910.544 240.48 909.616 241.28 908.421 241.856C907.248 242.453 905.883 242.752 904.325 242.752ZM900.069 229.056C900.069 229.867 900.251 230.603 900.613 231.264C900.997 231.925 901.509 232.448 902.149 232.832C902.811 233.216 903.547 233.408 904.357 233.408C905.061 233.408 905.691 233.291 906.245 233.056C906.821 232.821 907.312 232.491 907.717 232.064C908.144 231.637 908.453 231.136 908.645 230.56V227.616C908.453 227.04 908.144 226.549 907.717 226.144C907.312 225.717 906.821 225.387 906.245 225.152C905.691 224.917 905.061 224.8 904.357 224.8C903.547 224.8 902.811 224.981 902.149 225.344C901.509 225.707 900.997 226.208 900.613 226.848C900.251 227.488 900.069 228.224 900.069 229.056Z" fill="black"/>
<path d="M791.197 273.264H796.957V276H787.525L791.197 273.264ZM778.261 267.288C778.261 266.072 778.493 264.928 778.957 263.856C779.421 262.784 780.061 261.832 780.877 261C781.693 260.168 782.637 259.52 783.709 259.056C784.797 258.576 785.957 258.336 787.189 258.336C788.405 258.336 789.549 258.576 790.621 259.056C791.709 259.52 792.661 260.168 793.477 261C794.309 261.832 794.957 262.784 795.421 263.856C795.901 264.928 796.141 266.072 796.141 267.288C796.141 268.52 795.901 269.672 795.421 270.744C794.957 271.816 794.309 272.768 793.477 273.6C792.661 274.416 791.709 275.056 790.621 275.52C789.549 275.968 788.405 276.192 787.189 276.192C785.941 276.192 784.781 275.968 783.709 275.52C782.637 275.056 781.693 274.424 780.877 273.624C780.061 272.808 779.421 271.864 778.957 270.792C778.493 269.704 778.261 268.536 778.261 267.288ZM781.141 267.288C781.141 268.136 781.293 268.936 781.597 269.688C781.917 270.44 782.357 271.104 782.917 271.68C783.477 272.24 784.125 272.68 784.861 273C785.597 273.32 786.397 273.48 787.261 273.48C788.093 273.48 788.869 273.32 789.589 273C790.325 272.68 790.965 272.24 791.509 271.68C792.053 271.12 792.477 270.464 792.781 269.712C793.101 268.96 793.261 268.152 793.261 267.288C793.261 266.44 793.101 265.64 792.781 264.888C792.461 264.136 792.029 263.48 791.485 262.92C790.941 262.344 790.301 261.896 789.565 261.576C788.829 261.256 788.037 261.096 787.189 261.096C786.341 261.096 785.549 261.256 784.813 261.576C784.077 261.896 783.429 262.344 782.869 262.92C782.325 263.496 781.901 264.16 781.597 264.912C781.293 265.664 781.141 266.456 781.141 267.288ZM808.973 260.16L804.989 267L803.405 266.208C803.597 266.112 803.805 266.04 804.029 265.992C804.253 265.944 804.469 265.92 804.677 265.92C805.269 265.904 805.845 265.976 806.405 266.136C806.965 266.28 807.469 266.536 807.917 266.904C808.365 267.272 808.725 267.768 808.997 268.392C809.269 269.016 809.405 269.792 809.405 270.72C809.405 271.856 809.141 272.832 808.613 273.648C808.101 274.464 807.413 275.096 806.549 275.544C805.701 275.976 804.773 276.192 803.765 276.192C802.997 276.192 802.205 276.032 801.389 275.712C800.589 275.392 799.941 274.968 799.445 274.44L800.861 272.136C801.133 272.472 801.525 272.784 802.037 273.072C802.565 273.36 803.117 273.504 803.693 273.504C804.189 273.504 804.645 273.392 805.061 273.168C805.493 272.928 805.845 272.592 806.117 272.16C806.389 271.712 806.525 271.176 806.525 270.552C806.525 269.736 806.285 269.088 805.805 268.608C805.325 268.112 804.661 267.864 803.813 267.864C803.349 267.864 802.973 267.896 802.685 267.96C802.397 268.008 802.125 268.072 801.869 268.152L801.797 268.08L805.157 262.488L805.997 262.848H800.525V260.16H808.973ZM819.886 276C820.878 274.992 821.838 274.016 822.766 273.072C823.694 272.128 824.526 271.216 825.262 270.336C825.998 269.44 826.574 268.584 826.99 267.768C827.422 266.936 827.638 266.128 827.638 265.344C827.638 264.896 827.566 264.504 827.422 264.168C827.278 263.832 827.078 263.552 826.822 263.328C826.566 263.104 826.27 262.936 825.934 262.824C825.614 262.712 825.262 262.656 824.878 262.656C824.414 262.656 824.014 262.728 823.678 262.872C823.342 263.016 823.07 263.208 822.862 263.448C822.654 263.672 822.494 263.92 822.382 264.192C822.27 264.448 822.214 264.712 822.214 264.984C822.214 265.512 822.294 265.984 822.454 266.4C822.63 266.8 822.862 267.152 823.15 267.456L821.446 269.016C821.03 268.792 820.678 268.44 820.39 267.96C820.102 267.48 819.878 266.976 819.718 266.448C819.574 265.92 819.502 265.456 819.502 265.056C819.502 264.176 819.726 263.352 820.174 262.584C820.638 261.816 821.302 261.192 822.166 260.712C823.046 260.216 824.11 259.968 825.358 259.968C826.398 259.968 827.302 260.208 828.07 260.688C828.854 261.152 829.462 261.776 829.894 262.56C830.326 263.344 830.542 264.192 830.542 265.104C830.542 265.872 830.398 266.624 830.11 267.36C829.838 268.08 829.462 268.8 828.982 269.52C828.502 270.224 827.966 270.92 827.374 271.608C826.798 272.296 826.214 272.992 825.622 273.696L824.374 273.312H830.926V276H819.886ZM839.532 276.048C838.572 276.048 837.684 275.88 836.868 275.544C836.068 275.192 835.364 274.672 834.756 273.984C834.164 273.296 833.7 272.456 833.364 271.464C833.028 270.456 832.86 269.304 832.86 268.008C832.86 266.6 833.02 265.392 833.34 264.384C833.676 263.36 834.132 262.52 834.708 261.864C835.3 261.208 836.004 260.736 836.82 260.448C837.636 260.144 838.54 259.992 839.532 259.992C840.476 259.992 841.348 260.168 842.148 260.52C842.964 260.856 843.668 261.368 844.26 262.056C844.868 262.728 845.34 263.568 845.676 264.576C846.012 265.568 846.18 266.712 846.18 268.008C846.18 269.336 846.012 270.504 845.676 271.512C845.34 272.52 844.868 273.36 844.26 274.032C843.652 274.704 842.948 275.208 842.148 275.544C841.348 275.88 840.476 276.048 839.532 276.048ZM839.508 273.384C840.388 273.384 841.1 273.152 841.644 272.688C842.204 272.224 842.612 271.584 842.868 270.768C843.14 269.936 843.276 268.992 843.276 267.936C843.276 266.912 843.14 266.008 842.868 265.224C842.612 264.424 842.204 263.8 841.644 263.352C841.1 262.888 840.388 262.664 839.508 262.68C838.644 262.664 837.932 262.888 837.372 263.352C836.828 263.816 836.42 264.448 836.148 265.248C835.892 266.048 835.764 266.968 835.764 268.008C835.764 269.032 835.892 269.952 836.148 270.768C836.42 271.584 836.828 272.224 837.372 272.688C837.932 273.152 838.644 273.384 839.508 273.384ZM848.316 276C849.308 274.992 850.268 274.016 851.196 273.072C852.124 272.128 852.956 271.216 853.692 270.336C854.428 269.44 855.004 268.584 855.42 267.768C855.852 266.936 856.068 266.128 856.068 265.344C856.068 264.896 855.996 264.504 855.852 264.168C855.708 263.832 855.508 263.552 855.252 263.328C854.996 263.104 854.7 262.936 854.364 262.824C854.044 262.712 853.692 262.656 853.308 262.656C852.844 262.656 852.444 262.728 852.108 262.872C851.772 263.016 851.5 263.208 851.292 263.448C851.084 263.672 850.924 263.92 850.812 264.192C850.7 264.448 850.644 264.712 850.644 264.984C850.644 265.512 850.724 265.984 850.884 266.4C851.06 266.8 851.292 267.152 851.58 267.456L849.876 269.016C849.46 268.792 849.108 268.44 848.82 267.96C848.532 267.48 848.308 266.976 848.148 266.448C848.004 265.92 847.932 265.456 847.932 265.056C847.932 264.176 848.156 263.352 848.604 262.584C849.068 261.816 849.732 261.192 850.596 260.712C851.476 260.216 852.54 259.968 853.788 259.968C854.828 259.968 855.732 260.208 856.5 260.688C857.284 261.152 857.892 261.776 858.324 262.56C858.756 263.344 858.972 264.192 858.972 265.104C858.972 265.872 858.828 266.624 858.54 267.36C858.268 268.08 857.892 268.8 857.412 269.52C856.932 270.224 856.396 270.92 855.804 271.608C855.228 272.296 854.644 272.992 854.052 273.696L852.804 273.312H859.356V276H848.316ZM871.129 260.16L867.145 267L865.561 266.208C865.753 266.112 865.961 266.04 866.185 265.992C866.409 265.944 866.625 265.92 866.833 265.92C867.425 265.904 868.001 265.976 868.561 266.136C869.121 266.28 869.625 266.536 870.073 266.904C870.521 267.272 870.881 267.768 871.153 268.392C871.425 269.016 871.561 269.792 871.561 270.72C871.561 271.856 871.297 272.832 870.769 273.648C870.257 274.464 869.569 275.096 868.705 275.544C867.857 275.976 866.929 276.192 865.921 276.192C865.153 276.192 864.361 276.032 863.545 275.712C862.745 275.392 862.097 274.968 861.601 274.44L863.017 272.136C863.289 272.472 863.681 272.784 864.193 273.072C864.721 273.36 865.273 273.504 865.849 273.504C866.345 273.504 866.801 273.392 867.217 273.168C867.649 272.928 868.001 272.592 868.273 272.16C868.545 271.712 868.681 271.176 868.681 270.552C868.681 269.736 868.441 269.088 867.961 268.608C867.481 268.112 866.817 267.864 865.969 267.864C865.505 267.864 865.129 267.896 864.841 267.96C864.553 268.008 864.281 268.072 864.025 268.152L863.953 268.08L867.313 262.488L868.153 262.848H862.681V260.16H871.129Z" fill="black"/>
<rect x="683" y="622" width="284" height="140" rx="8" fill="#F171A1"/>
<path d="M730.995 658.704C732.766 658.704 734.28 659.003 735.539 659.6C736.798 660.197 737.758 661.051 738.419 662.16C739.102 663.269 739.443 664.613 739.443 666.192C739.443 667.109 739.294 668.027 738.995 668.944C738.718 669.861 738.27 670.693 737.651 671.44C737.054 672.187 736.243 672.795 735.219 673.264C734.216 673.712 732.979 673.936 731.507 673.936H728.147V682H724.403V658.704H730.995ZM731.507 670.32C732.318 670.32 733 670.181 733.555 669.904C734.11 669.627 734.536 669.275 734.835 668.848C735.155 668.421 735.379 667.984 735.507 667.536C735.656 667.067 735.731 666.651 735.731 666.288C735.731 665.904 735.667 665.488 735.539 665.04C735.411 664.571 735.198 664.133 734.899 663.728C734.6 663.301 734.184 662.96 733.651 662.704C733.118 662.427 732.435 662.288 731.603 662.288H728.147V670.32H731.507ZM747.582 682.576C746.344 682.576 745.32 682.203 744.51 681.456C743.699 680.688 743.272 679.707 743.23 678.512V668.464H746.814V677.232C746.856 677.893 747.048 678.437 747.39 678.864C747.731 679.291 748.275 679.504 749.022 679.504C749.726 679.504 750.355 679.291 750.91 678.864C751.464 678.416 751.891 677.808 752.19 677.04C752.51 676.272 752.67 675.408 752.67 674.448V668.464H756.254V682H753.022L752.734 679.024L752.83 679.504C752.552 680.08 752.158 680.613 751.646 681.104C751.134 681.573 750.526 681.936 749.822 682.192C749.139 682.448 748.392 682.576 747.582 682.576ZM769.742 682.352C768.526 682.352 767.481 682.117 766.606 681.648C765.732 681.157 765.017 680.539 764.462 679.792L764.782 678.864V682H761.198V657.04H764.782V671.248L764.718 669.968C765.252 669.349 765.998 668.848 766.958 668.464C767.918 668.059 769.006 667.856 770.222 667.856C771.417 667.856 772.505 668.144 773.486 668.72C774.489 669.275 775.289 670.085 775.886 671.152C776.484 672.219 776.782 673.499 776.782 674.992C776.782 676.507 776.452 677.819 775.79 678.928C775.15 680.037 774.286 680.891 773.198 681.488C772.132 682.064 770.98 682.352 769.742 682.352ZM768.974 679.312C769.742 679.312 770.436 679.131 771.054 678.768C771.694 678.384 772.196 677.861 772.558 677.2C772.942 676.539 773.134 675.792 773.134 674.96C773.134 674.149 772.942 673.424 772.558 672.784C772.196 672.144 771.694 671.643 771.054 671.28C770.436 670.896 769.742 670.704 768.974 670.704C768.292 670.704 767.662 670.821 767.086 671.056C766.532 671.291 766.052 671.621 765.646 672.048C765.262 672.453 764.974 672.933 764.782 673.488V676.496C764.996 677.051 765.294 677.541 765.678 677.968C766.062 678.395 766.532 678.725 767.086 678.96C767.662 679.195 768.292 679.312 768.974 679.312ZM780.573 657.04H784.157V682H780.573V657.04ZM789.073 668.464H792.657V682H789.073V668.464ZM788.913 663.632C788.913 663.077 789.127 662.619 789.553 662.256C790.001 661.893 790.481 661.712 790.993 661.712C791.505 661.712 791.964 661.893 792.369 662.256C792.796 662.619 793.009 663.077 793.009 663.632C793.009 664.187 792.796 664.645 792.369 665.008C791.964 665.349 791.505 665.52 790.993 665.52C790.481 665.52 790.001 665.339 789.553 664.976C789.127 664.613 788.913 664.165 788.913 663.632ZM808.773 680.752C808.176 681.243 807.44 681.637 806.565 681.936C805.712 682.213 804.848 682.352 803.973 682.352C802.48 682.352 801.168 682.064 800.037 681.488C798.907 680.891 798.021 680.069 797.381 679.024C796.763 677.957 796.453 676.688 796.453 675.216C796.453 673.744 796.784 672.475 797.445 671.408C798.128 670.341 799.013 669.531 800.101 668.976C801.211 668.4 802.384 668.112 803.621 668.112C804.752 668.112 805.755 668.272 806.629 668.592C807.504 668.891 808.261 669.307 808.901 669.84L807.109 672.176C806.768 671.899 806.32 671.643 805.765 671.408C805.232 671.152 804.624 671.024 803.941 671.024C803.216 671.024 802.555 671.205 801.957 671.568C801.381 671.931 800.912 672.432 800.549 673.072C800.208 673.691 800.037 674.405 800.037 675.216C800.037 675.984 800.219 676.688 800.581 677.328C800.944 677.968 801.445 678.48 802.085 678.864C802.725 679.227 803.461 679.408 804.293 679.408C804.827 679.408 805.317 679.333 805.765 679.184C806.235 679.013 806.64 678.789 806.981 678.512L808.773 680.752ZM823.434 658.704H827.178V678.416H838.666V682H823.434V658.704ZM848.551 682.352C847.271 682.352 846.108 682.085 845.063 681.552C844.039 681.019 843.228 680.229 842.631 679.184C842.033 678.117 841.735 676.805 841.735 675.248C841.735 673.712 842.044 672.4 842.663 671.312C843.303 670.203 844.135 669.349 845.159 668.752C846.204 668.155 847.335 667.856 848.551 667.856C849.852 667.856 850.897 668.112 851.687 668.624C852.497 669.136 853.127 669.744 853.575 670.448L853.383 670.96L853.735 668.464H857.031V682H853.447V678.704L853.799 679.568C853.713 679.696 853.543 679.909 853.287 680.208C853.031 680.485 852.679 680.795 852.231 681.136C851.783 681.477 851.249 681.765 850.631 682C850.033 682.235 849.34 682.352 848.551 682.352ZM849.543 679.408C850.183 679.408 850.759 679.291 851.271 679.056C851.804 678.821 852.252 678.491 852.615 678.064C852.999 677.637 853.276 677.125 853.447 676.528V673.584C853.276 673.029 852.999 672.549 852.615 672.144C852.231 671.717 851.761 671.387 851.207 671.152C850.673 670.917 850.076 670.8 849.415 670.8C848.689 670.8 848.017 670.981 847.399 671.344C846.78 671.707 846.279 672.208 845.895 672.848C845.532 673.488 845.351 674.224 845.351 675.056C845.351 675.867 845.543 676.603 845.927 677.264C846.311 677.925 846.823 678.448 847.463 678.832C848.103 679.216 848.796 679.408 849.543 679.408ZM866.332 682.576C865.094 682.576 864.07 682.203 863.26 681.456C862.449 680.688 862.022 679.707 861.98 678.512V668.464H865.564V677.232C865.606 677.893 865.798 678.437 866.14 678.864C866.481 679.291 867.025 679.504 867.772 679.504C868.476 679.504 869.105 679.291 869.66 678.864C870.214 678.416 870.641 677.808 870.94 677.04C871.26 676.272 871.42 675.408 871.42 674.448V668.464H875.004V682H871.772L871.484 679.024L871.58 679.504C871.302 680.08 870.908 680.613 870.396 681.104C869.884 681.573 869.276 681.936 868.572 682.192C867.889 682.448 867.142 682.576 866.332 682.576ZM883.18 668.464L883.5 671.376L883.372 670.992C883.842 670.053 884.535 669.307 885.452 668.752C886.391 668.176 887.5 667.888 888.78 667.888C890.06 667.888 891.116 668.261 891.948 669.008C892.78 669.755 893.207 670.736 893.228 671.952V682H889.644V673.232C889.623 672.549 889.431 672.005 889.068 671.6C888.706 671.173 888.13 670.949 887.34 670.928C886.615 670.928 885.964 671.152 885.388 671.6C884.812 672.027 884.354 672.624 884.012 673.392C883.692 674.139 883.532 675.003 883.532 675.984V682H879.948V668.464H883.18ZM909.367 680.752C908.77 681.243 908.034 681.637 907.159 681.936C906.306 682.213 905.442 682.352 904.567 682.352C903.074 682.352 901.762 682.064 900.631 681.488C899.5 680.891 898.615 680.069 897.975 679.024C897.356 677.957 897.047 676.688 897.047 675.216C897.047 673.744 897.378 672.475 898.039 671.408C898.722 670.341 899.607 669.531 900.695 668.976C901.804 668.4 902.978 668.112 904.215 668.112C905.346 668.112 906.348 668.272 907.223 668.592C908.098 668.891 908.855 669.307 909.495 669.84L907.703 672.176C907.362 671.899 906.914 671.643 906.359 671.408C905.826 671.152 905.218 671.024 904.535 671.024C903.81 671.024 903.148 671.205 902.551 671.568C901.975 671.931 901.506 672.432 901.143 673.072C900.802 673.691 900.631 674.405 900.631 675.216C900.631 675.984 900.812 676.688 901.175 677.328C901.538 677.968 902.039 678.48 902.679 678.864C903.319 679.227 904.055 679.408 904.887 679.408C905.42 679.408 905.911 679.333 906.359 679.184C906.828 679.013 907.234 678.789 907.575 678.512L909.367 680.752ZM913.042 682V657.04H916.562V671.44L916.498 670.896C916.967 670.021 917.661 669.307 918.578 668.752C919.495 668.176 920.594 667.888 921.874 667.888C923.154 667.888 924.21 668.261 925.042 669.008C925.874 669.755 926.301 670.736 926.322 671.952V682H922.738V673.232C922.717 672.549 922.525 672.005 922.162 671.6C921.799 671.173 921.223 670.949 920.434 670.928C919.709 670.928 919.058 671.152 918.482 671.6C917.906 672.048 917.447 672.656 917.106 673.424C916.786 674.171 916.626 675.024 916.626 675.984V682H913.042Z" fill="black"/>
<path d="M791.197 719.264H796.957V722H787.525L791.197 719.264ZM778.261 713.288C778.261 712.072 778.493 710.928 778.957 709.856C779.421 708.784 780.061 707.832 780.877 707C781.693 706.168 782.637 705.52 783.709 705.056C784.797 704.576 785.957 704.336 787.189 704.336C788.405 704.336 789.549 704.576 790.621 705.056C791.709 705.52 792.661 706.168 793.477 707C794.309 707.832 794.957 708.784 795.421 709.856C795.901 710.928 796.141 712.072 796.141 713.288C796.141 714.52 795.901 715.672 795.421 716.744C794.957 717.816 794.309 718.768 793.477 719.6C792.661 720.416 791.709 721.056 790.621 721.52C789.549 721.968 788.405 722.192 787.189 722.192C785.941 722.192 784.781 721.968 783.709 721.52C782.637 721.056 781.693 720.424 780.877 719.624C780.061 718.808 779.421 717.864 778.957 716.792C778.493 715.704 778.261 714.536 778.261 713.288ZM781.141 713.288C781.141 714.136 781.293 714.936 781.597 715.688C781.917 716.44 782.357 717.104 782.917 717.68C783.477 718.24 784.125 718.68 784.861 719C785.597 719.32 786.397 719.48 787.261 719.48C788.093 719.48 788.869 719.32 789.589 719C790.325 718.68 790.965 718.24 791.509 717.68C792.053 717.12 792.477 716.464 792.781 715.712C793.101 714.96 793.261 714.152 793.261 713.288C793.261 712.44 793.101 711.64 792.781 710.888C792.461 710.136 792.029 709.48 791.485 708.92C790.941 708.344 790.301 707.896 789.565 707.576C788.829 707.256 788.037 707.096 787.189 707.096C786.341 707.096 785.549 707.256 784.813 707.576C784.077 707.896 783.429 708.344 782.869 708.92C782.325 709.496 781.901 710.16 781.597 710.912C781.293 711.664 781.141 712.456 781.141 713.288ZM808.973 706.16L804.989 713L803.405 712.208C803.597 712.112 803.805 712.04 804.029 711.992C804.253 711.944 804.469 711.92 804.677 711.92C805.269 711.904 805.845 711.976 806.405 712.136C806.965 712.28 807.469 712.536 807.917 712.904C808.365 713.272 808.725 713.768 808.997 714.392C809.269 715.016 809.405 715.792 809.405 716.72C809.405 717.856 809.141 718.832 808.613 719.648C808.101 720.464 807.413 721.096 806.549 721.544C805.701 721.976 804.773 722.192 803.765 722.192C802.997 722.192 802.205 722.032 801.389 721.712C800.589 721.392 799.941 720.968 799.445 720.44L800.861 718.136C801.133 718.472 801.525 718.784 802.037 719.072C802.565 719.36 803.117 719.504 803.693 719.504C804.189 719.504 804.645 719.392 805.061 719.168C805.493 718.928 805.845 718.592 806.117 718.16C806.389 717.712 806.525 717.176 806.525 716.552C806.525 715.736 806.285 715.088 805.805 714.608C805.325 714.112 804.661 713.864 803.813 713.864C803.349 713.864 802.973 713.896 802.685 713.96C802.397 714.008 802.125 714.072 801.869 714.152L801.797 714.08L805.157 708.488L805.997 708.848H800.525V706.16H808.973ZM819.886 722C820.878 720.992 821.838 720.016 822.766 719.072C823.694 718.128 824.526 717.216 825.262 716.336C825.998 715.44 826.574 714.584 826.99 713.768C827.422 712.936 827.638 712.128 827.638 711.344C827.638 710.896 827.566 710.504 827.422 710.168C827.278 709.832 827.078 709.552 826.822 709.328C826.566 709.104 826.27 708.936 825.934 708.824C825.614 708.712 825.262 708.656 824.878 708.656C824.414 708.656 824.014 708.728 823.678 708.872C823.342 709.016 823.07 709.208 822.862 709.448C822.654 709.672 822.494 709.92 822.382 710.192C822.27 710.448 822.214 710.712 822.214 710.984C822.214 711.512 822.294 711.984 822.454 712.4C822.63 712.8 822.862 713.152 823.15 713.456L821.446 715.016C821.03 714.792 820.678 714.44 820.39 713.96C820.102 713.48 819.878 712.976 819.718 712.448C819.574 711.92 819.502 711.456 819.502 711.056C819.502 710.176 819.726 709.352 820.174 708.584C820.638 707.816 821.302 707.192 822.166 706.712C823.046 706.216 824.11 705.968 825.358 705.968C826.398 705.968 827.302 706.208 828.07 706.688C828.854 707.152 829.462 707.776 829.894 708.56C830.326 709.344 830.542 710.192 830.542 711.104C830.542 711.872 830.398 712.624 830.11 713.36C829.838 714.08 829.462 714.8 828.982 715.52C828.502 716.224 827.966 716.92 827.374 717.608C826.798 718.296 826.214 718.992 825.622 719.696L824.374 719.312H830.926V722H819.886ZM839.532 722.048C838.572 722.048 837.684 721.88 836.868 721.544C836.068 721.192 835.364 720.672 834.756 719.984C834.164 719.296 833.7 718.456 833.364 717.464C833.028 716.456 832.86 715.304 832.86 714.008C832.86 712.6 833.02 711.392 833.34 710.384C833.676 709.36 834.132 708.52 834.708 707.864C835.3 707.208 836.004 706.736 836.82 706.448C837.636 706.144 838.54 705.992 839.532 705.992C840.476 705.992 841.348 706.168 842.148 706.52C842.964 706.856 843.668 707.368 844.26 708.056C844.868 708.728 845.34 709.568 845.676 710.576C846.012 711.568 846.18 712.712 846.18 714.008C846.18 715.336 846.012 716.504 845.676 717.512C845.34 718.52 844.868 719.36 844.26 720.032C843.652 720.704 842.948 721.208 842.148 721.544C841.348 721.88 840.476 722.048 839.532 722.048ZM839.508 719.384C840.388 719.384 841.1 719.152 841.644 718.688C842.204 718.224 842.612 717.584 842.868 716.768C843.14 715.936 843.276 714.992 843.276 713.936C843.276 712.912 843.14 712.008 842.868 711.224C842.612 710.424 842.204 709.8 841.644 709.352C841.1 708.888 840.388 708.664 839.508 708.68C838.644 708.664 837.932 708.888 837.372 709.352C836.828 709.816 836.42 710.448 836.148 711.248C835.892 712.048 835.764 712.968 835.764 714.008C835.764 715.032 835.892 715.952 836.148 716.768C836.42 717.584 836.828 718.224 837.372 718.688C837.932 719.152 838.644 719.384 839.508 719.384ZM848.316 722C849.308 720.992 850.268 720.016 851.196 719.072C852.124 718.128 852.956 717.216 853.692 716.336C854.428 715.44 855.004 714.584 855.42 713.768C855.852 712.936 856.068 712.128 856.068 711.344C856.068 710.896 855.996 710.504 855.852 710.168C855.708 709.832 855.508 709.552 855.252 709.328C854.996 709.104 854.7 708.936 854.364 708.824C854.044 708.712 853.692 708.656 853.308 708.656C852.844 708.656 852.444 708.728 852.108 708.872C851.772 709.016 851.5 709.208 851.292 709.448C851.084 709.672 850.924 709.92 850.812 710.192C850.7 710.448 850.644 710.712 850.644 710.984C850.644 711.512 850.724 711.984 850.884 712.4C851.06 712.8 851.292 713.152 851.58 713.456L849.876 715.016C849.46 714.792 849.108 714.44 848.82 713.96C848.532 713.48 848.308 712.976 848.148 712.448C848.004 711.92 847.932 711.456 847.932 711.056C847.932 710.176 848.156 709.352 848.604 708.584C849.068 707.816 849.732 707.192 850.596 706.712C851.476 706.216 852.54 705.968 853.788 705.968C854.828 705.968 855.732 706.208 856.5 706.688C857.284 707.152 857.892 707.776 858.324 708.56C858.756 709.344 858.972 710.192 858.972 711.104C858.972 711.872 858.828 712.624 858.54 713.36C858.268 714.08 857.892 714.8 857.412 715.52C856.932 716.224 856.396 716.92 855.804 717.608C855.228 718.296 854.644 718.992 854.052 719.696L852.804 719.312H859.356V722H848.316ZM871.129 706.16L867.145 713L865.561 712.208C865.753 712.112 865.961 712.04 866.185 711.992C866.409 711.944 866.625 711.92 866.833 711.92C867.425 711.904 868.001 711.976 868.561 712.136C869.121 712.28 869.625 712.536 870.073 712.904C870.521 713.272 870.881 713.768 871.153 714.392C871.425 715.016 871.561 715.792 871.561 716.72C871.561 717.856 871.297 718.832 870.769 719.648C870.257 720.464 869.569 721.096 868.705 721.544C867.857 721.976 866.929 722.192 865.921 722.192C865.153 722.192 864.361 722.032 863.545 721.712C862.745 721.392 862.097 720.968 861.601 720.44L863.017 718.136C863.289 718.472 863.681 718.784 864.193 719.072C864.721 719.36 865.273 719.504 865.849 719.504C866.345 719.504 866.801 719.392 867.217 719.168C867.649 718.928 868.001 718.592 868.273 718.16C868.545 717.712 868.681 717.176 868.681 716.552C868.681 715.736 868.441 715.088 867.961 714.608C867.481 714.112 866.817 713.864 865.969 713.864C865.505 713.864 865.129 713.896 864.841 713.96C864.553 714.008 864.281 714.072 864.025 714.152L863.953 714.08L867.313 708.488L868.153 708.848H862.681V706.16H871.129Z" fill="black"/>
<defs>
<filter id="filter0_d_217_5517" x="138.3" y="207.3" width="1177.4" height="553.4" filterUnits="userSpaceOnUse" color-interpolation-filters="sRGB">
<feFlood flood-opacity="0" result="BackgroundImageFix"/>
<feColorMatrix in="SourceAlpha" type="matrix" values="0 0 0 0 0 0 0 0 0 0 0 0 0 0 0 0 0 0 127 0" result="hardAlpha"/>
<feOffset dx="12" dy="16"/>
<feGaussianBlur stdDeviation="15.35"/>
<feComposite in2="hardAlpha" operator="out"/>
<feColorMatrix type="matrix" values="0 0 0 0 0.823529 0 0 0 0 1 0 0 0 0 0.345098 0 0 0 0.72 0"/>
<feBlend mode="normal" in2="BackgroundImageFix" result="effect1_dropShadow_217_5517"/>
<feBlend mode="normal" in="SourceGraphic" in2="effect1_dropShadow_217_5517" result="shape"/>
</filter>
<linearGradient id="paint0_linear_217_5517" x1="1263" y1="468" x2="167" y2="468" gradientUnits="userSpaceOnUse">
<stop stop-color="#283C86"/>
<stop offset="1" stop-color="#45A247"/>
</linearGradient>
</defs>
</svg>
